<svg version="1.1" id="Layer_1" xmlns="http://www.w3.org/2000/svg" xmlns:xlink="http://www.w3.org/1999/xlink" x="0px" y="0px"
	 width="100%" viewBox="0 0 1920 580" enable-background="new 0 0 1920 580" xml:space="preserve">
<path fill="#FFFFFF" opacity="1.000000" stroke="none" 
	d="
M1810.000000,581.000000 
	C1206.666626,581.000000 603.833313,581.000000 1.000000,581.000000 
	C1.000000,387.666656 1.000000,194.333328 1.000000,1.000000 
	C641.000000,1.000000 1281.000000,1.000000 1921.000000,1.000000 
	C1921.000000,194.333328 1921.000000,387.666656 1921.000000,581.000000 
	C1884.166626,581.000000 1847.333374,581.000000 1810.000000,581.000000 
M1248.254517,403.010529 
	C1247.510254,403.053467 1246.765991,403.096405 1245.342896,402.980621 
	C1244.886597,403.043518 1244.430420,403.106415 1243.471558,403.109589 
	C1243.370850,403.396210 1243.270142,403.682831 1242.981201,404.891846 
	C1243.033813,410.268311 1243.086304,415.644745 1243.072510,421.550537 
	C1243.375122,421.664215 1243.677856,421.777893 1244.866943,422.064789 
	C1247.635742,421.865875 1250.486572,422.016510 1253.154663,421.389191 
	C1257.568481,420.351379 1259.634888,417.128113 1259.571289,412.661316 
	C1259.502441,407.819000 1256.974487,405.027802 1251.644775,403.436066 
	C1250.759033,403.344849 1249.873291,403.253662 1248.254517,403.010529 
M1168.377930,407.868652 
	C1167.557373,409.759003 1166.619629,411.612000 1165.996704,413.565369 
	C1165.836304,414.068359 1166.666748,414.887268 1167.022949,415.493896 
	C1167.022949,415.493896 1166.985840,415.434784 1166.196167,414.918243 
	C1165.714478,415.588837 1165.232910,416.259399 1164.221313,417.269287 
	C1163.659912,418.731384 1163.098511,420.193512 1162.537109,421.655640 
	C1162.908447,421.788940 1163.279785,421.922272 1163.651123,422.055603 
	C1164.456665,420.379852 1165.262085,418.704102 1166.944458,416.970825 
	C1172.441895,414.762665 1175.215332,419.992035 1179.514160,421.437225 
	C1176.814331,415.307159 1174.114502,409.177094 1170.950562,401.993103 
	C1169.984985,404.525574 1169.427246,405.988312 1168.947144,407.455353 
	C1168.947144,407.455353 1169.007812,407.406891 1168.377930,407.868652 
M1215.096313,403.015472 
	C1213.174927,403.015472 1211.253540,403.015472 1209.367432,403.015472 
	C1209.367432,409.661835 1209.367432,415.808289 1209.367432,421.954742 
	C1209.976440,422.066772 1210.585327,422.178802 1211.194336,422.290833 
	C1211.599365,419.228699 1212.004517,416.166534 1212.592407,411.721924 
	C1214.806274,414.541229 1216.409912,416.456055 1217.872192,418.473297 
	C1220.588379,422.220367 1220.554077,422.245239 1223.479858,421.117706 
	C1221.380371,418.732574 1219.313110,416.383942 1217.251831,413.211029 
	C1218.793213,411.193359 1220.334595,409.175720 1221.875977,407.158051 
	C1219.912598,405.831055 1217.949341,404.504059 1215.096313,403.015472 
M815.085388,394.946472 
	C814.255066,394.908905 813.424683,394.838470 812.594360,394.838409 
	C734.883240,394.832977 657.172119,394.830994 579.460999,394.846191 
	C577.973511,394.846497 576.486084,395.053497 574.098511,394.888123 
	C569.040466,394.888123 563.982422,394.888123 559.240112,394.888123 
	C559.240112,412.308685 559.240112,428.957764 559.240112,445.522186 
	C564.781067,445.522186 569.893311,445.522186 575.919861,445.733307 
	C576.583862,445.768738 577.247925,445.835144 577.911926,445.835175 
	C655.951172,445.840363 733.990356,445.842194 812.029602,445.827881 
	C813.351196,445.827637 814.672791,445.628479 816.895996,445.787018 
	C821.820496,445.787018 826.744995,445.787018 831.746643,445.787018 
	C831.746643,428.537262 831.746643,411.767181 831.746643,395.164032 
	C826.236023,395.164032 821.118713,395.164032 815.085388,394.946472 
M815.926819,312.933136 
	C821.180481,312.933136 826.434082,312.933136 831.699463,312.933136 
	C831.699463,295.621490 831.699463,279.066376 831.699463,262.187958 
	C825.897461,262.187958 820.446594,262.187958 814.067322,262.057861 
	C729.161316,262.057861 644.255310,262.057861 559.300903,262.057861 
	C559.300903,279.371490 559.300903,295.937134 559.300903,313.000000 
	C561.626404,313.000000 563.588928,313.000000 565.551392,313.000000 
	C646.869873,313.000000 728.188416,313.001221 809.506897,312.992126 
	C811.336487,312.991943 813.166077,312.874695 815.926819,312.933136 
M639.500000,331.298859 
	C612.759949,331.298859 586.019897,331.298859 558.860535,331.298859 
	C558.860535,347.487335 558.855042,362.457520 558.869202,377.427704 
	C558.870605,378.905975 558.992371,380.384125 559.066284,382.041504 
	C650.143066,382.041504 740.958008,382.041504 831.738708,382.041504 
	C831.738708,364.965759 831.738708,348.552460 831.738708,331.299408 
	C767.749939,331.299408 704.125000,331.299408 639.500000,331.298859 
M742.500000,247.012482 
	C770.651428,247.012405 798.803223,246.946075 826.953918,247.089600 
	C830.808228,247.109253 832.153015,246.150955 832.079407,242.087082 
	C831.831970,228.432281 831.875610,214.768738 832.057129,201.111877 
	C832.106873,197.372543 831.310181,195.913635 827.136902,195.919495 
	C739.351135,196.042709 651.565186,196.032791 563.779297,195.941727 
	C560.119568,195.937943 558.856506,196.868607 558.916870,200.683014 
	C559.130371,214.172363 559.226746,227.672928 558.881775,241.156830 
	C558.754395,246.137466 560.436462,247.126328 565.095520,247.114075 
	C623.896729,246.959457 682.698425,247.012497 742.500000,247.012482 
M1358.695312,369.091278 
	C1369.874512,367.599487 1380.387817,364.055542 1390.129517,358.419800 
	C1403.980103,350.406921 1411.235474,335.530090 1407.941284,320.898926 
	C1404.971069,307.707489 1395.419067,300.111938 1383.610596,295.076965 
	C1378.807739,293.029053 1373.696045,291.705383 1368.011475,289.814972 
	C1370.094238,288.956299 1371.662720,288.539612 1372.985596,287.724335 
	C1378.754517,284.168823 1385.200806,281.290649 1390.038940,276.723419 
	C1406.245117,261.424622 1402.754517,236.308945 1382.721680,226.692261 
	C1374.229370,222.615570 1364.462524,219.925247 1355.082031,219.238617 
	C1337.011597,217.915894 1318.803833,218.463699 1300.652832,218.264099 
	C1300.211670,218.259262 1299.766724,218.585815 1299.293091,218.769638 
	C1299.293091,269.096680 1299.293091,319.342163 1299.293091,370.006592 
	C1304.788818,370.006592 1310.080200,370.078522 1315.369019,369.992706 
	C1329.515991,369.763214 1343.661743,369.466095 1358.695312,369.091278 
M1014.508057,258.022461 
	C1017.831482,262.187256 1021.151978,266.354401 1024.478882,270.516418 
	C1050.781616,303.421722 1077.087158,336.324829 1103.385376,369.233795 
	C1105.026001,371.286835 1106.458008,373.755829 1109.692139,371.992310 
	C1109.692139,320.776764 1109.692139,269.700897 1109.692139,218.475586 
	C1106.369263,218.475586 1103.306396,218.475586 1099.793335,218.475586 
	C1099.793335,255.114365 1099.793335,291.481354 1099.793335,329.234802 
	C1097.917847,327.050018 1096.871582,325.911865 1095.913696,324.703461 
	C1068.609863,290.257385 1041.325806,255.795486 1013.976440,221.385513 
	C1012.935181,220.075439 1011.337891,218.462463 1009.895203,218.351715 
	C1004.981812,217.974518 1000.021606,218.207428 995.001099,218.207428 
	C995.001099,269.066864 995.001099,319.436188 995.001099,369.674713 
	C998.400696,369.674713 1001.480835,369.674713 1004.990723,369.674713 
	C1004.990723,328.674591 1004.990723,288.005707 1004.990723,246.191788 
	C1008.499084,250.563324 1011.274292,254.021362 1014.508057,258.022461 
M1183.769653,280.782684 
	C1187.362549,285.970367 1190.955322,291.158051 1194.631470,296.466003 
	C1175.651733,320.849670 1156.789795,345.082062 1137.387451,370.008667 
	C1140.582153,370.008667 1142.898926,369.706451 1145.105591,370.070862 
	C1149.870239,370.857788 1152.507080,368.679993 1155.187500,364.905792 
	C1168.968506,345.501282 1183.062622,326.319061 1197.055908,307.065430 
	C1197.893677,305.912872 1198.805786,304.814484 1199.955444,303.342560 
	C1201.137817,305.081940 1202.081177,306.407837 1202.961792,307.774200 
	C1215.576050,327.347015 1228.151489,346.945007 1240.850342,366.462738 
	C1241.806641,367.932587 1243.592407,369.795929 1245.053345,369.850616 
	C1253.618652,370.171173 1262.202026,370.008087 1271.662354,370.008087 
	C1251.392456,342.344025 1231.672607,315.430603 1211.874390,288.410370 
	C1230.639648,265.145264 1249.284668,242.029419 1268.505371,218.199783 
	C1265.438232,218.199783 1263.439819,218.474030 1261.544922,218.147415 
	C1256.252319,217.235123 1253.179077,219.660919 1250.114868,223.828720 
	C1236.902100,241.800034 1223.318970,259.499207 1209.858398,277.288147 
	C1208.917480,278.531616 1207.875488,279.698639 1206.705811,281.112518 
	C1194.574341,261.016113 1182.830078,241.497040 1170.974609,222.045746 
	C1170.046875,220.523743 1168.384766,218.431122 1166.994019,218.376083 
	C1158.412109,218.036469 1149.809937,218.205566 1140.106079,218.205566 
	C1154.890259,239.418411 1169.107178,259.817017 1183.769653,280.782684 
M1187.889771,403.020569 
	C1187.452881,403.605988 1186.646362,404.185059 1186.636108,404.777802 
	C1186.539795,410.396606 1186.578857,416.017700 1186.578857,421.851501 
	C1191.477661,421.991852 1196.660034,423.398712 1199.440063,418.625824 
	C1200.363525,417.040436 1198.277344,413.701996 1197.618286,411.347839 
	C1198.021240,409.829254 1199.296021,407.730835 1198.736328,406.409973 
	C1198.117798,404.950897 1195.942749,403.828339 1194.214844,403.255432 
	C1192.556885,402.705780 1190.603516,403.047943 1187.889771,403.020569 
M1101.381592,408.591705 
	C1104.980957,413.035919 1108.580444,417.480133 1112.664062,422.522278 
	C1112.664062,415.557190 1112.664062,409.513824 1112.664062,403.470490 
	C1112.307007,403.458984 1111.950073,403.447479 1111.593018,403.435974 
	C1111.593018,407.346191 1111.593018,411.256409 1111.593018,416.589569 
	C1107.082886,411.035919 1103.567505,406.707092 1100.052002,402.378296 
	C1099.681763,402.669800 1099.311401,402.961334 1098.941040,403.252869 
	C1098.941040,409.362610 1098.941040,415.472382 1098.941040,421.582123 
	C1099.127197,421.587372 1099.313477,421.592651 1099.499634,421.597900 
	C1099.927246,417.076202 1100.354980,412.554504 1101.381592,408.591705 
M1290.796265,417.224304 
	C1290.882446,418.790710 1290.968628,420.357117 1291.031738,421.505798 
	C1295.087036,421.505798 1298.655640,421.505798 1302.224121,421.505798 
	C1302.205566,421.056732 1302.187012,420.607635 1302.168335,420.158569 
	C1299.539917,420.339539 1296.911377,420.520477 1294.139648,420.711304 
	C1294.139648,418.049255 1294.139648,415.525299 1294.139648,413.033112 
	C1296.154297,412.848969 1297.810059,412.697601 1299.465942,412.546265 
	C1299.472168,412.279114 1299.478516,412.011993 1299.484741,411.744843 
	C1297.659546,411.508575 1295.834229,411.272308 1294.201416,411.060974 
	C1294.201416,408.633179 1294.201416,406.593872 1294.201416,404.336060 
	C1297.130371,404.336060 1299.625977,404.336060 1302.121582,404.336060 
	C1302.109009,404.002625 1302.096558,403.669189 1302.083984,403.335754 
	C1298.423706,403.335754 1294.763306,403.335754 1290.796387,403.335754 
	C1290.796387,407.676544 1290.796387,411.981171 1290.796265,417.224304 
M1133.405762,421.543793 
	C1130.707520,421.087463 1128.009155,420.631134 1125.368652,420.184570 
	C1125.368652,415.221954 1125.368652,409.957520 1125.368652,404.177917 
	C1128.084961,404.177917 1130.702271,404.177917 1133.319580,404.177917 
	C1133.296265,403.904755 1133.273071,403.631622 1133.249756,403.358459 
	C1129.551880,403.358459 1125.854004,403.358459 1122.343506,403.358459 
	C1122.343506,409.803253 1122.343506,415.880371 1122.343506,421.967987 
	C1126.019409,421.967987 1129.348022,421.967987 1133.405762,421.543793 
M1155.912842,421.968689 
	C1154.730713,416.682587 1144.255859,403.370300 1141.286865,403.352600 
	C1143.293457,406.877045 1145.007446,410.631073 1147.405029,413.880615 
	C1149.620117,416.882629 1152.568115,419.343903 1155.912842,421.968689 
M1270.325562,407.161591 
	C1270.918579,406.243652 1271.511597,405.325684 1272.835083,403.276947 
	C1266.700439,406.177338 1265.143555,410.062866 1265.923340,414.946869 
	C1266.435913,418.157074 1268.069702,420.576904 1272.652222,421.133911 
	C1268.684937,416.747894 1267.757690,412.536713 1270.325562,407.161591 
M1231.139404,407.728943 
	C1231.139404,421.098328 1231.139404,421.098328 1233.750000,421.712036 
	C1233.750000,415.493622 1233.750000,409.293823 1233.750000,403.094025 
	C1233.266724,402.980896 1232.783447,402.867767 1232.300171,402.754639 
	C1231.913208,404.099335 1231.526367,405.444061 1231.139404,407.728943 
z"/>
<path fill="#898CA6" opacity="1.000000" stroke="none" 
	d="
M640.000000,331.299133 
	C704.125000,331.299408 767.749939,331.299408 831.738708,331.299408 
	C831.738708,348.552460 831.738708,364.965759 831.738708,382.041504 
	C740.958008,382.041504 650.143066,382.041504 559.066284,382.041504 
	C558.992371,380.384125 558.870605,378.905975 558.869202,377.427704 
	C558.855042,362.457520 558.860535,347.487335 558.860535,331.298859 
	C586.019897,331.298859 612.759949,331.298859 640.000000,331.299133 
M815.912537,340.664307 
	C815.912537,338.521057 815.912537,336.377808 815.912537,334.234589 
	C815.708740,334.243530 815.504944,334.252472 815.301147,334.261414 
	C815.301147,349.486359 815.301147,364.711304 815.301147,379.936279 
	C815.504883,379.937164 815.708557,379.938080 815.912292,379.938995 
	C815.912292,367.165833 815.912292,354.392670 815.912537,340.664307 
M575.938538,335.414520 
	C575.826782,334.945007 575.715088,334.475464 575.299438,332.728546 
	C575.299438,349.322479 575.299438,364.620758 575.299438,379.919067 
	C575.513794,379.920227 575.728088,379.921417 575.942444,379.922577 
	C575.942444,365.356873 575.942444,350.791138 575.938538,335.414520 
z"/>
<path fill="#E2E2E9" opacity="1.000000" stroke="none" 
	d="
M742.000000,247.012482 
	C682.698425,247.012497 623.896729,246.959457 565.095520,247.114075 
	C560.436462,247.126328 558.754395,246.137466 558.881775,241.156830 
	C559.226746,227.672928 559.130371,214.172363 558.916870,200.683014 
	C558.856506,196.868607 560.119568,195.937943 563.779297,195.941727 
	C651.565186,196.032791 739.351135,196.042709 827.136902,195.919495 
	C831.310181,195.913635 832.106873,197.372543 832.057129,201.111877 
	C831.875610,214.768738 831.831970,228.432281 832.079407,242.087082 
	C832.153015,246.150955 830.808228,247.109253 826.953918,247.089600 
	C798.803223,246.946075 770.651428,247.012405 742.000000,247.012482 
z"/>
<path fill="#BBBCCB" opacity="1.000000" stroke="none" 
	d="
M814.995667,312.812042 
	C813.166077,312.874695 811.336487,312.991943 809.506897,312.992126 
	C728.188416,313.001221 646.869873,313.000000 565.551392,313.000000 
	C563.588928,313.000000 561.626404,313.000000 559.300903,313.000000 
	C559.300903,295.937134 559.300903,279.371490 559.300903,262.057861 
	C644.255310,262.057861 729.161316,262.057861 814.532593,262.573303 
	C814.997192,279.663177 814.996460,296.237610 814.995667,312.812042 
z"/>
<path fill="#3C406C" opacity="1.000000" stroke="none" 
	d="
M574.998596,395.164032 
	C576.486084,395.053497 577.973511,394.846497 579.460999,394.846191 
	C657.172119,394.830994 734.883240,394.832977 812.594360,394.838409 
	C813.424683,394.838470 814.255066,394.908905 815.544617,395.512848 
	C816.000732,412.560211 815.997559,429.041168 815.994385,445.522156 
	C814.672791,445.628479 813.351196,445.827637 812.029602,445.827881 
	C733.990356,445.842194 655.951172,445.840363 577.911926,445.835175 
	C577.247925,445.835144 576.583862,445.768738 575.458740,445.190735 
	C574.997986,428.153442 574.998291,411.658752 574.998596,395.164032 
z"/>
<path fill="#030303" opacity="1.000000" stroke="none" 
	d="
M1358.251709,369.143555 
	C1343.661743,369.466095 1329.515991,369.763214 1315.369019,369.992706 
	C1310.080200,370.078522 1304.788818,370.006592 1299.293091,370.006592 
	C1299.293091,319.342163 1299.293091,269.096680 1299.293091,218.769638 
	C1299.766724,218.585815 1300.211670,218.259262 1300.652832,218.264099 
	C1318.803833,218.463699 1337.011597,217.915894 1355.082031,219.238617 
	C1364.462524,219.925247 1374.229370,222.615570 1382.721680,226.692261 
	C1402.754517,236.308945 1406.245117,261.424622 1390.038940,276.723419 
	C1385.200806,281.290649 1378.754517,284.168823 1372.985596,287.724335 
	C1371.662720,288.539612 1370.094238,288.956299 1368.011475,289.814972 
	C1373.696045,291.705383 1378.807739,293.029053 1383.610596,295.076965 
	C1395.419067,300.111938 1404.971069,307.707489 1407.941284,320.898926 
	C1411.235474,335.530090 1403.980103,350.406921 1390.129517,358.419800 
	C1380.387817,364.055542 1369.874512,367.599487 1358.251709,369.143555 
M1374.739746,308.770508 
	C1359.804932,293.204987 1340.778564,293.628387 1321.484619,294.602875 
	C1321.484619,316.604126 1321.484619,338.068390 1321.484619,359.463470 
	C1332.584351,363.097443 1351.311768,362.780975 1361.471313,358.858948 
	C1383.962891,350.176239 1390.246704,327.536560 1374.739746,308.770508 
M1342.992554,287.600464 
	C1344.979614,287.380524 1346.972412,287.203491 1348.952637,286.933868 
	C1364.790771,284.777832 1374.489990,275.110016 1376.631714,259.369659 
	C1378.460815,245.927109 1371.041748,234.096527 1356.525757,228.502899 
	C1344.540894,223.884659 1333.017700,228.396759 1321.687012,230.906784 
	C1321.687012,250.158401 1321.687012,268.890289 1321.687012,287.669586 
	C1328.755981,287.669586 1335.414795,287.669586 1342.992554,287.600464 
z"/>
<path fill="#040404" opacity="1.000000" stroke="none" 
	d="
M1014.278809,257.750916 
	C1011.274292,254.021362 1008.499084,250.563324 1004.990723,246.191788 
	C1004.990723,288.005707 1004.990723,328.674591 1004.990723,369.674713 
	C1001.480835,369.674713 998.400696,369.674713 995.001099,369.674713 
	C995.001099,319.436188 995.001099,269.066864 995.001099,218.207428 
	C1000.021606,218.207428 1004.981812,217.974518 1009.895203,218.351715 
	C1011.337891,218.462463 1012.935181,220.075439 1013.976440,221.385513 
	C1041.325806,255.795486 1068.609863,290.257385 1095.913696,324.703461 
	C1096.871582,325.911865 1097.917847,327.050018 1099.793335,329.234802 
	C1099.793335,291.481354 1099.793335,255.114365 1099.793335,218.475586 
	C1103.306396,218.475586 1106.369263,218.475586 1109.692139,218.475586 
	C1109.692139,269.700897 1109.692139,320.776764 1109.692139,371.992310 
	C1106.458008,373.755829 1105.026001,371.286835 1103.385376,369.233795 
	C1077.087158,336.324829 1050.781616,303.421722 1024.478882,270.516418 
	C1021.151978,266.354401 1017.831482,262.187256 1014.278809,257.750916 
z"/>
<path fill="#050505" opacity="1.000000" stroke="none" 
	d="
M1183.546875,280.499146 
	C1169.107178,259.817017 1154.890259,239.418411 1140.106079,218.205566 
	C1149.809937,218.205566 1158.412109,218.036469 1166.994019,218.376083 
	C1168.384766,218.431122 1170.046875,220.523743 1170.974609,222.045746 
	C1182.830078,241.497040 1194.574341,261.016113 1206.705811,281.112518 
	C1207.875488,279.698639 1208.917480,278.531616 1209.858398,277.288147 
	C1223.318970,259.499207 1236.902100,241.800034 1250.114868,223.828720 
	C1253.179077,219.660919 1256.252319,217.235123 1261.544922,218.147415 
	C1263.439819,218.474030 1265.438232,218.199783 1268.505371,218.199783 
	C1249.284668,242.029419 1230.639648,265.145264 1211.874390,288.410370 
	C1231.672607,315.430603 1251.392456,342.344025 1271.662354,370.008087 
	C1262.202026,370.008087 1253.618652,370.171173 1245.053345,369.850616 
	C1243.592407,369.795929 1241.806641,367.932587 1240.850342,366.462738 
	C1228.151489,346.945007 1215.576050,327.347015 1202.961792,307.774200 
	C1202.081177,306.407837 1201.137817,305.081940 1199.955444,303.342560 
	C1198.805786,304.814484 1197.893677,305.912872 1197.055908,307.065430 
	C1183.062622,326.319061 1168.968506,345.501282 1155.187500,364.905792 
	C1152.507080,368.679993 1149.870239,370.857788 1145.105591,370.070862 
	C1142.898926,369.706451 1140.582153,370.008667 1137.387451,370.008667 
	C1156.789795,345.082062 1175.651733,320.849670 1194.631470,296.466003 
	C1190.955322,291.158051 1187.362549,285.970367 1183.546875,280.499146 
z"/>
<path fill="#BCBDCC" opacity="1.000000" stroke="none" 
	d="
M815.461243,312.872589 
	C814.996460,296.237610 814.997192,279.663177 814.996826,262.638367 
	C820.446594,262.187958 825.897461,262.187958 831.699463,262.187958 
	C831.699463,279.066376 831.699463,295.621490 831.699463,312.933136 
	C826.434082,312.933136 821.180481,312.933136 815.461243,312.872589 
z"/>
<path fill="#3B3F6B" opacity="1.000000" stroke="none" 
	d="
M574.548584,395.026062 
	C574.998291,411.658752 574.997986,428.153442 575.001587,445.085175 
	C569.893311,445.522186 564.781067,445.522186 559.240112,445.522186 
	C559.240112,428.957764 559.240112,412.308685 559.240112,394.888123 
	C563.982422,394.888123 569.040466,394.888123 574.548584,395.026062 
z"/>
<path fill="#3B3F6B" opacity="1.000000" stroke="none" 
	d="
M816.445190,445.654602 
	C815.997559,429.041168 816.000732,412.560211 816.002625,395.621643 
	C821.118713,395.164032 826.236023,395.164032 831.746643,395.164032 
	C831.746643,411.767181 831.746643,428.537262 831.746643,445.787018 
	C826.744995,445.787018 821.820496,445.787018 816.445190,445.654602 
z"/>
<path fill="#1A1A1A" opacity="1.000000" stroke="none" 
	d="
M1188.334839,403.009369 
	C1190.603516,403.047943 1192.556885,402.705780 1194.214844,403.255432 
	C1195.942749,403.828339 1198.117798,404.950897 1198.736328,406.409973 
	C1199.296021,407.730835 1198.021240,409.829254 1197.618286,411.347839 
	C1198.277344,413.701996 1200.363525,417.040436 1199.440063,418.625824 
	C1196.660034,423.398712 1191.477661,421.991852 1186.578857,421.851501 
	C1186.578857,416.017700 1186.539795,410.396606 1186.636108,404.777802 
	C1186.646362,404.185059 1187.452881,403.605988 1188.334839,403.009369 
M1196.996216,417.372925 
	C1196.418213,412.574890 1193.274536,412.447052 1189.505615,413.027588 
	C1189.505615,415.713257 1189.505615,418.115601 1189.505615,422.151306 
	C1192.531128,420.517242 1194.698730,419.346527 1196.996216,417.372925 
M1192.657593,411.188385 
	C1193.718262,410.571472 1195.574097,410.055725 1195.668213,409.315918 
	C1195.844727,407.928680 1195.433716,405.849701 1194.463501,405.104095 
	C1193.458496,404.331726 1190.529175,404.216309 1190.153076,404.842133 
	C1189.265137,406.319672 1189.239136,408.408630 1189.242920,410.249542 
	C1189.243652,410.615753 1190.932373,410.978485 1192.657593,411.188385 
z"/>
<path fill="#1A1A1A" opacity="1.000000" stroke="none" 
	d="
M1101.082031,408.312256 
	C1100.354980,412.554504 1099.927246,417.076202 1099.499634,421.597900 
	C1099.313477,421.592651 1099.127197,421.587372 1098.941040,421.582123 
	C1098.941040,415.472382 1098.941040,409.362610 1098.941040,403.252869 
	C1099.311401,402.961334 1099.681763,402.669800 1100.052002,402.378296 
	C1103.567505,406.707092 1107.082886,411.035919 1111.593018,416.589569 
	C1111.593018,411.256409 1111.593018,407.346191 1111.593018,403.435974 
	C1111.950073,403.447479 1112.307007,403.458984 1112.664062,403.470490 
	C1112.664062,409.513824 1112.664062,415.557190 1112.664062,422.522278 
	C1108.580444,417.480133 1104.980957,413.035919 1101.082031,408.312256 
z"/>
<path fill="#292929" opacity="1.000000" stroke="none" 
	d="
M1243.138794,421.021210 
	C1243.086304,415.644745 1243.033813,410.268311 1243.249023,404.341492 
	C1243.733032,403.630737 1243.885498,403.423462 1243.974121,403.169312 
	C1244.430420,403.106415 1244.886597,403.043518 1245.721436,403.437836 
	C1246.156738,404.141876 1246.213379,404.388733 1246.155884,405.049255 
	C1246.041626,410.562805 1246.041626,415.662689 1246.041626,420.725189 
	C1254.125732,421.054291 1258.141235,416.409241 1255.818848,409.671234 
	C1255.097046,407.576721 1253.335449,405.840515 1252.035400,403.959290 
	C1252.020752,403.978333 1251.995728,404.019318 1251.995728,404.019318 
	C1256.974487,405.027802 1259.502441,407.819000 1259.571289,412.661316 
	C1259.634888,417.128113 1257.568481,420.351379 1253.154663,421.389191 
	C1250.486572,422.016510 1247.635742,421.865875 1244.344116,421.782104 
	C1243.650513,421.259216 1243.422974,421.099792 1243.138794,421.021210 
z"/>
<path fill="#292929" opacity="1.000000" stroke="none" 
	d="
M1290.796387,416.755035 
	C1290.796387,411.981171 1290.796387,407.676544 1290.796387,403.335754 
	C1294.763306,403.335754 1298.423706,403.335754 1302.083984,403.335754 
	C1302.096558,403.669189 1302.109009,404.002625 1302.121582,404.336060 
	C1299.625977,404.336060 1297.130371,404.336060 1294.201416,404.336060 
	C1294.201416,406.593872 1294.201416,408.633179 1294.201416,411.060974 
	C1295.834229,411.272308 1297.659546,411.508575 1299.484741,411.744843 
	C1299.478516,412.011993 1299.472168,412.279114 1299.465942,412.546265 
	C1297.810059,412.697601 1296.154297,412.848969 1294.139648,413.033112 
	C1294.139648,415.525299 1294.139648,418.049255 1294.139648,420.711304 
	C1296.911377,420.520477 1299.539917,420.339539 1302.168335,420.158569 
	C1302.187012,420.607635 1302.205566,421.056732 1302.224121,421.505798 
	C1298.655640,421.505798 1295.087036,421.505798 1291.031738,421.505798 
	C1290.968628,420.357117 1290.882446,418.790710 1290.796387,416.755035 
z"/>
<path fill="#1A1A1A" opacity="1.000000" stroke="none" 
	d="
M1217.245728,414.035278 
	C1219.313110,416.383942 1221.380371,418.732574 1223.479858,421.117706 
	C1220.554077,422.245239 1220.588379,422.220367 1217.872192,418.473297 
	C1216.409912,416.456055 1214.806274,414.541229 1212.592407,411.721924 
	C1212.004517,416.166534 1211.599365,419.228699 1211.194336,422.290833 
	C1210.585327,422.178802 1209.976440,422.066772 1209.367432,421.954742 
	C1209.367432,415.808289 1209.367432,409.661835 1209.367432,403.015472 
	C1211.253540,403.015472 1213.174927,403.015472 1215.542114,403.284790 
	C1215.987915,403.554077 1216.014160,403.930176 1215.597900,403.984070 
	C1209.069336,404.924011 1212.990234,409.187225 1212.061523,412.093994 
	C1213.672119,412.093994 1214.832397,412.093994 1216.019531,412.346008 
	C1216.446045,413.077087 1216.845947,413.556183 1217.245728,414.035278 
z"/>
<path fill="#1A1A1A" opacity="1.000000" stroke="none" 
	d="
M1133.041260,421.755890 
	C1129.348022,421.967987 1126.019409,421.967987 1122.343506,421.967987 
	C1122.343506,415.880371 1122.343506,409.803253 1122.343506,403.358459 
	C1125.854004,403.358459 1129.551880,403.358459 1133.249756,403.358459 
	C1133.273071,403.631622 1133.296265,403.904755 1133.319580,404.177917 
	C1130.702271,404.177917 1128.084961,404.177917 1125.368652,404.177917 
	C1125.368652,409.957520 1125.368652,415.221954 1125.368652,420.184570 
	C1128.009155,420.631134 1130.707520,421.087463 1133.041260,421.755890 
z"/>
<path fill="#1A1A1A" opacity="1.000000" stroke="none" 
	d="
M1155.552979,422.006012 
	C1152.568115,419.343903 1149.620117,416.882629 1147.405029,413.880615 
	C1145.007446,410.631073 1143.293457,406.877045 1141.286865,403.352600 
	C1144.255859,403.370300 1154.730713,416.682587 1155.552979,422.006012 
z"/>
<path fill="#1A1A1A" opacity="1.000000" stroke="none" 
	d="
M1168.869507,407.451019 
	C1169.427246,405.988312 1169.984985,404.525574 1170.950562,401.993103 
	C1174.114502,409.177094 1176.814331,415.307159 1179.514160,421.437225 
	C1175.215332,419.992035 1172.441895,414.762665 1166.177490,416.967712 
	C1165.190796,416.953064 1164.971069,416.941528 1164.751221,416.929993 
	C1165.232910,416.259399 1165.714478,415.588837 1166.986328,415.396210 
	C1169.580078,415.874176 1171.383545,415.874176 1174.846924,415.874176 
	C1172.442627,412.486023 1170.656006,409.968506 1168.869507,407.451019 
z"/>
<path fill="#1A1A1A" opacity="1.000000" stroke="none" 
	d="
M1270.142578,407.517822 
	C1267.757690,412.536713 1268.684937,416.747894 1272.652222,421.133911 
	C1268.069702,420.576904 1266.435913,418.157074 1265.923340,414.946869 
	C1265.143555,410.062866 1266.700439,406.177338 1272.835083,403.276947 
	C1271.511597,405.325684 1270.918579,406.243652 1270.142578,407.517822 
z"/>
<path fill="#292929" opacity="1.000000" stroke="none" 
	d="
M1231.139404,407.258850 
	C1231.526367,405.444061 1231.913208,404.099335 1232.300171,402.754639 
	C1232.783447,402.867767 1233.266724,402.980896 1233.750000,403.094025 
	C1233.750000,409.293823 1233.750000,415.493622 1233.750000,421.712036 
	C1231.139404,421.098328 1231.139404,421.098328 1231.139404,407.258850 
z"/>
<path fill="#292929" opacity="1.000000" stroke="none" 
	d="
M1217.248779,413.623169 
	C1216.845947,413.556183 1216.446045,413.077087 1216.312256,412.159607 
	C1220.323242,408.839508 1219.070557,406.319550 1216.014160,403.930176 
	C1216.014160,403.930176 1215.987915,403.554077 1215.986938,403.365601 
	C1217.949341,404.504059 1219.912598,405.831055 1221.875977,407.158051 
	C1220.334595,409.175720 1218.793213,411.193359 1217.248779,413.623169 
z"/>
<path fill="#E2E2E9" opacity="1.000000" stroke="none" 
	d="
M1168.908325,407.453186 
	C1170.656006,409.968506 1172.442627,412.486023 1174.846924,415.874176 
	C1171.383545,415.874176 1169.580078,415.874176 1167.381226,415.654480 
	C1166.985840,415.434784 1167.022949,415.493896 1167.001709,415.102112 
	C1167.656128,412.275848 1168.332031,409.841370 1169.007812,407.406891 
	C1169.007812,407.406891 1168.947144,407.455353 1168.908325,407.453186 
z"/>
<path fill="#292929" opacity="1.000000" stroke="none" 
	d="
M1164.486328,417.099640 
	C1164.971069,416.941528 1165.190796,416.953064 1165.739014,416.996460 
	C1165.262085,418.704102 1164.456665,420.379852 1163.651123,422.055603 
	C1163.279785,421.922272 1162.908447,421.788940 1162.537109,421.655640 
	C1163.098511,420.193512 1163.659912,418.731384 1164.486328,417.099640 
z"/>
<path fill="#292929" opacity="1.000000" stroke="none" 
	d="
M1168.692871,407.637756 
	C1168.332031,409.841370 1167.656128,412.275848 1167.011230,415.135681 
	C1166.666748,414.887268 1165.836304,414.068359 1165.996704,413.565369 
	C1166.619629,411.612000 1167.557373,409.759003 1168.692871,407.637756 
z"/>
<path fill="#292929" opacity="1.000000" stroke="none" 
	d="
M1248.987549,403.162445 
	C1249.873291,403.253662 1250.759033,403.344849 1251.820312,403.727692 
	C1251.995728,404.019318 1252.020752,403.978333 1251.699585,404.197296 
	C1250.583130,404.249237 1249.787720,404.082214 1248.993408,403.726990 
	C1248.994385,403.538788 1248.987549,403.162445 1248.987549,403.162445 
z"/>
<path fill="#1A1A1A" opacity="1.000000" stroke="none" 
	d="
M1248.621094,403.086487 
	C1248.987549,403.162445 1248.994385,403.538788 1248.660400,403.843140 
	C1247.641113,404.310242 1246.955566,404.472961 1246.270142,404.635620 
	C1246.213379,404.388733 1246.156738,404.141876 1246.060791,403.517212 
	C1246.765991,403.096405 1247.510254,403.053467 1248.621094,403.086487 
z"/>
<path fill="#1A1A1A" opacity="1.000000" stroke="none" 
	d="
M1243.722900,403.139465 
	C1243.885498,403.423462 1243.733032,403.630737 1243.343262,403.880310 
	C1243.270142,403.682831 1243.370850,403.396210 1243.722900,403.139465 
z"/>
<path fill="#1A1A1A" opacity="1.000000" stroke="none" 
	d="
M1243.105713,421.285889 
	C1243.422974,421.099792 1243.650513,421.259216 1243.900879,421.695496 
	C1243.677856,421.777893 1243.375122,421.664215 1243.105713,421.285889 
z"/>
<path fill="#C2C3D1" opacity="1.000000" stroke="none" 
	d="
M815.912415,341.141907 
	C815.912292,354.392670 815.912292,367.165833 815.912292,379.938995 
	C815.708557,379.938080 815.504883,379.937164 815.301147,379.936279 
	C815.301147,364.711304 815.301147,349.486359 815.301147,334.261414 
	C815.504944,334.252472 815.708740,334.243530 815.912537,334.234589 
	C815.912537,336.377808 815.912537,338.521057 815.912415,341.141907 
z"/>
<path fill="#BBBCCB" opacity="1.000000" stroke="none" 
	d="
M575.940491,335.819977 
	C575.942444,350.791138 575.942444,365.356873 575.942444,379.922577 
	C575.728088,379.921417 575.513794,379.920227 575.299438,379.919067 
	C575.299438,364.620758 575.299438,349.322479 575.299438,332.728546 
	C575.715088,334.475464 575.826782,334.945007 575.940491,335.819977 
z"/>
<path fill="#FCFCFC" opacity="1.000000" stroke="none" 
	d="
M1374.983887,309.033203 
	C1390.246704,327.536560 1383.962891,350.176239 1361.471313,358.858948 
	C1351.311768,362.780975 1332.584351,363.097443 1321.484619,359.463470 
	C1321.484619,338.068390 1321.484619,316.604126 1321.484619,294.602875 
	C1340.778564,293.628387 1359.804932,293.204987 1374.983887,309.033203 
z"/>
<path fill="#FBFBFB" opacity="1.000000" stroke="none" 
	d="
M1342.533203,287.635010 
	C1335.414795,287.669586 1328.755981,287.669586 1321.687012,287.669586 
	C1321.687012,268.890289 1321.687012,250.158401 1321.687012,230.906784 
	C1333.017700,228.396759 1344.540894,223.884659 1356.525757,228.502899 
	C1371.041748,234.096527 1378.460815,245.927109 1376.631714,259.369659 
	C1374.489990,275.110016 1364.790771,284.777832 1348.952637,286.933868 
	C1346.972412,287.203491 1344.979614,287.380524 1342.533203,287.635010 
z"/>
<path fill="#E2E2E9" opacity="1.000000" stroke="none" 
	d="
M1196.931274,417.774384 
	C1194.698730,419.346527 1192.531128,420.517242 1189.505615,422.151306 
	C1189.505615,418.115601 1189.505615,415.713257 1189.505615,413.027588 
	C1193.274536,412.447052 1196.418213,412.574890 1196.931274,417.774384 
z"/>
<path fill="#FBFBFB" opacity="1.000000" stroke="none" 
	d="
M1192.250244,411.265625 
	C1190.932373,410.978485 1189.243652,410.615753 1189.242920,410.249542 
	C1189.239136,408.408630 1189.265137,406.319672 1190.153076,404.842133 
	C1190.529175,404.216309 1193.458496,404.331726 1194.463501,405.104095 
	C1195.433716,405.849701 1195.844727,407.928680 1195.668213,409.315918 
	C1195.574097,410.055725 1193.718262,410.571472 1192.250244,411.265625 
z"/>
<path fill="#FBFBFB" opacity="1.000000" stroke="none" 
	d="
M1246.155884,405.049255 
	C1246.955566,404.472961 1247.641113,404.310242 1248.659424,404.031372 
	C1249.787720,404.082214 1250.583130,404.249237 1251.714111,404.178284 
	C1253.335449,405.840515 1255.097046,407.576721 1255.818848,409.671234 
	C1258.141235,416.409241 1254.125732,421.054291 1246.041626,420.725189 
	C1246.041626,415.662689 1246.041626,410.562805 1246.155884,405.049255 
z"/>
<path fill="#E2E2E9" opacity="1.000000" stroke="none" 
	d="
M1215.597900,403.984070 
	C1219.070557,406.319550 1220.323242,408.839508 1216.285400,411.907593 
	C1214.832397,412.093994 1213.672119,412.093994 1212.061523,412.093994 
	C1212.990234,409.187225 1209.069336,404.924011 1215.597900,403.984070 
z"/>
</svg>